<svg width="587" height="253" viewBox="0 0 587 253" fill="none" xmlns="http://www.w3.org/2000/svg">
<mask id="mask0_31_4" style="mask-type:luminance" maskUnits="userSpaceOnUse" x="0" y="0" width="587" height="253">
<path d="M586.11 0H0V252.98H586.11V0Z" fill="white"/>
</mask>
<g mask="url(#mask0_31_4)">
<path d="M24.8702 207.45C33.0402 211.44 42.9702 213.44 54.6602 213.44C64.8102 213.44 73.6402 211.77 81.1502 208.43C88.6702 205.09 94.6803 200.34 99.2003 194.18C103.72 188.02 106.68 180.71 108.11 172.23H202.58V93.8096H179.01V150.33H157.29V93.8096H133.72V150.33H109.4V93.8096H85.8302V153.58C85.8302 165.52 83.5102 174.88 78.8702 181.65C74.2302 188.42 66.1602 191.81 54.6502 191.81C43.2002 191.81 35.1403 188.42 30.4803 181.65C25.8103 174.87 23.4702 165.52 23.4702 153.58V112.93L-0.00976562 120.08V161.93C-0.00976562 172.88 2.09025 182.21 6.30025 189.91C10.5202 197.62 16.7102 203.46 24.8702 207.45Z" fill="#2961F5"/>
</g>
<mask id="mask1_31_4" style="mask-type:luminance" maskUnits="userSpaceOnUse" x="0" y="0" width="587" height="253">
<path d="M586.11 0H0V252.98H586.11V0Z" fill="white"/>
</mask>
<g mask="url(#mask1_31_4)">
<path d="M251.58 202.63C257.89 195.42 261.05 185.29 261.05 172.24H273.21H360.06V145.23C360.06 127.78 356.07 113.48 348.09 102.31C340.11 91.1395 326.44 85.5596 307.07 85.5596C300.58 85.5596 293.77 86.3296 286.65 87.8796L290.46 108.2C295.1 107.46 299.68 107.09 304.19 107.09C312.85 107.09 319.55 108.71 324.28 111.96C329.01 115.21 332.23 119.49 333.93 124.81C335.63 130.13 336.48 136.44 336.48 143.74V150.33H273.19H261.03V93.8096L237.46 101.28V171.67C237.46 177.36 236.1 182.02 233.38 185.63C230.66 189.25 226.36 191.06 220.48 191.06H213.15V213.42H222.8C235.68 213.44 245.27 209.83 251.58 202.63Z" fill="#2961F5"/>
</g>
<mask id="mask2_31_4" style="mask-type:luminance" maskUnits="userSpaceOnUse" x="0" y="0" width="587" height="253">
<path d="M586.11 0H0V252.98H586.11V0Z" fill="white"/>
</mask>
<g mask="url(#mask2_31_4)">
<path d="M322.84 195.13L330.15 187.82C333.32 184.65 331.08 179.22 326.59 179.22H303.85C299.36 179.22 297.11 184.65 300.29 187.82L307.6 195.13C311.8 199.35 318.63 199.35 322.84 195.13Z" fill="#2961F5"/>
</g>
<mask id="mask3_31_4" style="mask-type:luminance" maskUnits="userSpaceOnUse" x="0" y="0" width="587" height="253">
<path d="M586.11 0H0V252.98H586.11V0Z" fill="white"/>
</mask>
<g mask="url(#mask3_31_4)">
<path d="M548.3 252.98H436.37C418.83 252.98 404.61 238.76 404.61 221.22V31.77C404.61 14.23 418.83 0 436.37 0H554.35C571.89 0 586.11 14.22 586.11 31.77V215.17C586.11 236.05 569.18 252.98 548.3 252.98Z" fill="#2961F5"/>
</g>
<mask id="mask4_31_4" style="mask-type:luminance" maskUnits="userSpaceOnUse" x="0" y="0" width="587" height="253">
<path d="M586.11 0H0V252.98H586.11V0Z" fill="white"/>
</mask>
<g mask="url(#mask4_31_4)">
<path d="M482.09 113.74L481.969 113.76L456.34 119.24C461.24 100.19 478.729 74.4601 500.789 71.6901C520.909 69.6601 533.9 89.9801 537.37 101.15L482.09 113.74ZM548.95 62.5501L549.07 56.1401C549.26 45.8801 545.149 36.7301 538.529 30.2501C531.319 23.1801 521.129 19.3001 510.299 20.6901H510.279L489.43 25.3401C477.55 28.0901 465.959 37.0601 457.779 48.2801C450.879 57.7401 446.409 68.7801 446.219 79.0301L446.099 85.4301C443.199 123.72 431.259 127.72 425.029 129.18L423.52 212.06L509.7 192.44L509.83 192.41L567.06 180.2L568.57 97.3201C562.35 98.6101 550.47 99.8601 548.95 62.5501Z" fill="white"/>
</g>
<mask id="mask5_31_4" style="mask-type:luminance" maskUnits="userSpaceOnUse" x="0" y="0" width="587" height="253">
<path d="M586.11 0H0V252.98H586.11V0Z" fill="white"/>
</mask>
<g mask="url(#mask5_31_4)">
<path d="M515.28 202.43L478.38 210.37C474.74 211.15 473.85 215.93 476.95 217.98L488.62 225.67C496.5 230.86 507.1 228.59 512.16 220.63L519.7 208.78C521.71 205.64 518.92 201.64 515.28 202.43Z" fill="white"/>
</g>
</svg>
